<mxfile host="app.diagrams.net" modified="2022-10-16T05:54:08.361Z" agent="5.0 (Windows NT 10.0; Win64; x64) AppleWebKit/537.36 (KHTML, like Gecko) Chrome/106.0.0.0 Safari/537.36 Edg/106.0.1370.42" etag="3X0ywatcNeEE8xI7aBxZ" version="20.4.1" type="github" pages="2">
  <diagram id="kPq2ntZRkkWAnAArJFhL" name="预期-行动-反馈模型">
    <mxGraphModel dx="1631" dy="991" grid="0" gridSize="10" guides="1" tooltips="1" connect="1" arrows="1" fold="1" page="1" pageScale="1" pageWidth="1169" pageHeight="827" background="none" math="0" shadow="0">
      <root>
        <mxCell id="0" />
        <mxCell id="1" parent="0" />
        <mxCell id="ibxlL6P6bhPAEz_x_jn9-12" value="" style="edgeStyle=none;orthogonalLoop=1;jettySize=auto;html=1;entryX=1;entryY=0.5;entryDx=0;entryDy=0;exitX=0;exitY=0.5;exitDx=0;exitDy=0;snapToPoint=0;fixDash=0;shadow=1;" parent="1" source="ibxlL6P6bhPAEz_x_jn9-11" target="ibxlL6P6bhPAEz_x_jn9-10" edge="1">
          <mxGeometry relative="1" as="geometry">
            <mxPoint x="706" y="117" as="sourcePoint" />
          </mxGeometry>
        </mxCell>
        <mxCell id="ibxlL6P6bhPAEz_x_jn9-32" style="edgeStyle=none;orthogonalLoop=1;jettySize=auto;html=1;exitX=0.5;exitY=1;exitDx=0;exitDy=0;endArrow=none;endFill=0;snapToPoint=0;fixDash=0;shadow=1;" parent="1" source="ibxlL6P6bhPAEz_x_jn9-10" edge="1">
          <mxGeometry relative="1" as="geometry">
            <mxPoint x="456" y="473" as="targetPoint" />
            <mxPoint x="456" y="103" as="sourcePoint" />
          </mxGeometry>
        </mxCell>
        <mxCell id="ibxlL6P6bhPAEz_x_jn9-10" value="&lt;font style=&quot;font-size: 22px&quot;&gt;反馈&lt;/font&gt;" style="whiteSpace=wrap;html=1;snapToPoint=0;fixDash=0;shadow=1;fillColor=#e51400;strokeColor=#B20000;fontColor=#ffffff;" parent="1" vertex="1">
          <mxGeometry x="396" y="127" width="120" height="60" as="geometry" />
        </mxCell>
        <mxCell id="ibxlL6P6bhPAEz_x_jn9-11" value="&lt;font style=&quot;font-size: 22px&quot;&gt;&lt;font style=&quot;font-size: 22px&quot;&gt;行&lt;/font&gt;&lt;font style=&quot;font-size: 22px&quot;&gt;动&lt;/font&gt;&lt;/font&gt;" style="whiteSpace=wrap;html=1;direction=east;snapToPoint=0;fixDash=0;shadow=1;glass=0;" parent="1" vertex="1">
          <mxGeometry x="957" y="127" width="120" height="60" as="geometry" />
        </mxCell>
        <mxCell id="ibxlL6P6bhPAEz_x_jn9-16" style="edgeStyle=none;orthogonalLoop=1;jettySize=auto;html=1;exitX=0.5;exitY=1;exitDx=0;exitDy=0;snapToPoint=0;fixDash=0;shadow=1;" parent="1" source="ibxlL6P6bhPAEz_x_jn9-13" edge="1">
          <mxGeometry relative="1" as="geometry">
            <mxPoint x="612" y="157" as="targetPoint" />
          </mxGeometry>
        </mxCell>
        <mxCell id="ibxlL6P6bhPAEz_x_jn9-13" value="&lt;font style=&quot;font-size: 22px&quot;&gt;目标&lt;/font&gt;" style="whiteSpace=wrap;html=1;snapToPoint=0;fixDash=0;shadow=1;" parent="1" vertex="1">
          <mxGeometry x="552" y="74" width="120" height="60" as="geometry" />
        </mxCell>
        <mxCell id="PvnQy5CXaOimZ1M_9s1F-1" style="edgeStyle=orthogonalEdgeStyle;rounded=0;orthogonalLoop=1;jettySize=auto;html=1;exitX=0.5;exitY=1;exitDx=0;exitDy=0;" parent="1" edge="1">
          <mxGeometry relative="1" as="geometry">
            <mxPoint x="777" y="157" as="targetPoint" />
            <mxPoint x="777" y="128" as="sourcePoint" />
          </mxGeometry>
        </mxCell>
        <mxCell id="ibxlL6P6bhPAEz_x_jn9-14" value="&lt;font style=&quot;font-size: 22px&quot;&gt;技能&lt;br&gt;难度&lt;/font&gt;" style="whiteSpace=wrap;html=1;snapToPoint=0;fixDash=0;shadow=1;" parent="1" vertex="1">
          <mxGeometry x="717" y="74" width="120" height="60" as="geometry" />
        </mxCell>
        <mxCell id="ibxlL6P6bhPAEz_x_jn9-18" style="edgeStyle=none;orthogonalLoop=1;jettySize=auto;html=1;exitX=0.5;exitY=0;exitDx=0;exitDy=0;snapToPoint=0;fixDash=0;shadow=1;" parent="1" source="ibxlL6P6bhPAEz_x_jn9-15" edge="1">
          <mxGeometry relative="1" as="geometry">
            <mxPoint x="692" y="157" as="targetPoint" />
          </mxGeometry>
        </mxCell>
        <mxCell id="ibxlL6P6bhPAEz_x_jn9-15" value="&lt;font style=&quot;font-size: 22px&quot;&gt;专注&lt;/font&gt;" style="whiteSpace=wrap;html=1;snapToPoint=0;fixDash=0;shadow=1;" parent="1" vertex="1">
          <mxGeometry x="631.5" y="182" width="120" height="60" as="geometry" />
        </mxCell>
        <mxCell id="ibxlL6P6bhPAEz_x_jn9-25" style="edgeStyle=none;orthogonalLoop=1;jettySize=auto;html=1;exitX=0.25;exitY=1;exitDx=0;exitDy=0;entryX=0.25;entryY=0;entryDx=0;entryDy=0;snapToPoint=0;fixDash=0;shadow=1;" parent="1" source="ibxlL6P6bhPAEz_x_jn9-19" target="ibxlL6P6bhPAEz_x_jn9-21" edge="1">
          <mxGeometry relative="1" as="geometry" />
        </mxCell>
        <mxCell id="ibxlL6P6bhPAEz_x_jn9-33" style="edgeStyle=none;orthogonalLoop=1;jettySize=auto;html=1;endArrow=classic;endFill=1;entryX=0;entryY=0.5;entryDx=0;entryDy=0;snapToPoint=0;fixDash=0;shadow=1;" parent="1" target="ibxlL6P6bhPAEz_x_jn9-19" edge="1">
          <mxGeometry relative="1" as="geometry">
            <mxPoint x="506" y="298" as="targetPoint" />
            <mxPoint x="456" y="363" as="sourcePoint" />
          </mxGeometry>
        </mxCell>
        <mxCell id="ibxlL6P6bhPAEz_x_jn9-19" value="&lt;span style=&quot;font-size: 22px&quot;&gt;态度&lt;br&gt;&lt;/span&gt;" style="whiteSpace=wrap;html=1;snapToPoint=0;fixDash=0;shadow=1;" parent="1" vertex="1">
          <mxGeometry x="516" y="333" width="120" height="60" as="geometry" />
        </mxCell>
        <mxCell id="ibxlL6P6bhPAEz_x_jn9-24" style="edgeStyle=none;orthogonalLoop=1;jettySize=auto;html=1;exitX=0.75;exitY=0;exitDx=0;exitDy=0;entryX=0.75;entryY=1;entryDx=0;entryDy=0;snapToPoint=0;fixDash=0;shadow=1;" parent="1" source="ibxlL6P6bhPAEz_x_jn9-21" target="ibxlL6P6bhPAEz_x_jn9-19" edge="1">
          <mxGeometry relative="1" as="geometry" />
        </mxCell>
        <mxCell id="ibxlL6P6bhPAEz_x_jn9-34" style="edgeStyle=none;orthogonalLoop=1;jettySize=auto;html=1;endArrow=classic;endFill=1;entryX=0;entryY=0.5;entryDx=0;entryDy=0;snapToPoint=0;fixDash=0;shadow=1;" parent="1" target="ibxlL6P6bhPAEz_x_jn9-21" edge="1">
          <mxGeometry relative="1" as="geometry">
            <mxPoint x="436" y="508" as="targetPoint" />
            <mxPoint x="456" y="473" as="sourcePoint" />
          </mxGeometry>
        </mxCell>
        <mxCell id="ibxlL6P6bhPAEz_x_jn9-21" value="&lt;font style=&quot;font-size: 22px&quot;&gt;预期&lt;/font&gt;" style="whiteSpace=wrap;html=1;snapToPoint=0;fixDash=0;shadow=1;" parent="1" vertex="1">
          <mxGeometry x="516" y="443" width="120" height="60" as="geometry" />
        </mxCell>
        <mxCell id="ibxlL6P6bhPAEz_x_jn9-30" style="edgeStyle=none;orthogonalLoop=1;jettySize=auto;html=1;entryX=0;entryY=0.5;entryDx=0;entryDy=0;startArrow=none;snapToPoint=0;fixDash=0;shadow=1;exitX=1;exitY=0.5;exitDx=0;exitDy=0;" parent="1" source="keqpm7v_gJoTvBz5cPvA-7" target="ibxlL6P6bhPAEz_x_jn9-26" edge="1">
          <mxGeometry relative="1" as="geometry">
            <mxPoint x="816" y="418" as="targetPoint" />
            <mxPoint x="876" y="418" as="sourcePoint" />
          </mxGeometry>
        </mxCell>
        <mxCell id="ibxlL6P6bhPAEz_x_jn9-31" style="edgeStyle=none;orthogonalLoop=1;jettySize=auto;html=1;exitX=0.5;exitY=0;exitDx=0;exitDy=0;entryX=0.5;entryY=1;entryDx=0;entryDy=0;snapToPoint=0;fixDash=0;shadow=1;" parent="1" source="ibxlL6P6bhPAEz_x_jn9-26" target="ibxlL6P6bhPAEz_x_jn9-11" edge="1">
          <mxGeometry relative="1" as="geometry" />
        </mxCell>
        <mxCell id="ibxlL6P6bhPAEz_x_jn9-26" value="&lt;font style=&quot;font-size: 22px&quot;&gt;准备活动&lt;/font&gt;" style="whiteSpace=wrap;html=1;snapToPoint=0;fixDash=0;shadow=1;" parent="1" vertex="1">
          <mxGeometry x="957" y="388" width="120" height="60" as="geometry" />
        </mxCell>
        <mxCell id="ibxlL6P6bhPAEz_x_jn9-29" value="" style="endArrow=none;html=1;exitX=1;exitY=0.5;exitDx=0;exitDy=0;entryX=1;entryY=0.5;entryDx=0;entryDy=0;snapToPoint=0;fixDash=0;shadow=1;" parent="1" source="ibxlL6P6bhPAEz_x_jn9-21" target="ibxlL6P6bhPAEz_x_jn9-19" edge="1">
          <mxGeometry width="50" height="50" relative="1" as="geometry">
            <mxPoint x="671" y="438" as="sourcePoint" />
            <mxPoint x="721" y="388" as="targetPoint" />
            <Array as="points">
              <mxPoint x="666" y="473" />
              <mxPoint x="666" y="363" />
            </Array>
          </mxGeometry>
        </mxCell>
        <mxCell id="ibxlL6P6bhPAEz_x_jn9-36" style="edgeStyle=none;orthogonalLoop=1;jettySize=auto;html=1;endArrow=classic;endFill=1;entryX=0;entryY=0.5;entryDx=0;entryDy=0;snapToPoint=0;fixDash=0;shadow=1;" parent="1" edge="1">
          <mxGeometry relative="1" as="geometry">
            <mxPoint x="756" y="418" as="targetPoint" />
            <mxPoint x="666" y="418" as="sourcePoint" />
          </mxGeometry>
        </mxCell>
        <mxCell id="dJDtyNAbK6uFxzYJcRhW-17" value="" style="edgeStyle=orthogonalEdgeStyle;rounded=0;orthogonalLoop=1;jettySize=auto;html=1;startArrow=none;startFill=0;endArrow=none;endFill=0;strokeColor=none;" parent="1" edge="1">
          <mxGeometry relative="1" as="geometry">
            <mxPoint x="816.0588235294117" y="448" as="sourcePoint" />
            <mxPoint x="737" y="481" as="targetPoint" />
          </mxGeometry>
        </mxCell>
        <mxCell id="2JWgwbIt5jw4n_CIhUtz-4" style="edgeStyle=none;rounded=0;orthogonalLoop=1;jettySize=auto;html=1;exitX=0.5;exitY=0;exitDx=0;exitDy=0;fontSize=22;" parent="1" source="2JWgwbIt5jw4n_CIhUtz-3" edge="1">
          <mxGeometry relative="1" as="geometry">
            <mxPoint x="857" y="160" as="targetPoint" />
          </mxGeometry>
        </mxCell>
        <mxCell id="2JWgwbIt5jw4n_CIhUtz-3" value="&lt;font style=&quot;font-size: 22px&quot;&gt;环境&lt;/font&gt;" style="whiteSpace=wrap;html=1;snapToPoint=0;fixDash=0;shadow=1;fillColor=#f0a30a;fontColor=#000000;strokeColor=#BD7000;" parent="1" vertex="1">
          <mxGeometry x="797" y="182" width="120" height="60" as="geometry" />
        </mxCell>
        <mxCell id="keqpm7v_gJoTvBz5cPvA-9" value="" style="group" parent="1" vertex="1" connectable="0">
          <mxGeometry x="756" y="364" width="111" height="111" as="geometry" />
        </mxCell>
        <mxCell id="keqpm7v_gJoTvBz5cPvA-4" value="" style="ellipse;whiteSpace=wrap;html=1;aspect=fixed;fontSize=22;" parent="keqpm7v_gJoTvBz5cPvA-9" vertex="1">
          <mxGeometry width="111" height="111" as="geometry" />
        </mxCell>
        <mxCell id="keqpm7v_gJoTvBz5cPvA-5" value="" style="curved=1;endArrow=none;html=1;rounded=0;fontSize=22;entryX=0.5;entryY=0;entryDx=0;entryDy=0;exitX=0.5;exitY=1;exitDx=0;exitDy=0;endFill=0;" parent="keqpm7v_gJoTvBz5cPvA-9" source="keqpm7v_gJoTvBz5cPvA-4" target="keqpm7v_gJoTvBz5cPvA-4" edge="1">
          <mxGeometry width="50" height="50" relative="1" as="geometry">
            <mxPoint x="16" y="80.5" as="sourcePoint" />
            <mxPoint x="66" y="30.5" as="targetPoint" />
            <Array as="points">
              <mxPoint x="76" y="81" />
              <mxPoint x="36" y="31" />
            </Array>
          </mxGeometry>
        </mxCell>
        <mxCell id="keqpm7v_gJoTvBz5cPvA-6" value="意志" style="text;html=1;strokeColor=none;fillColor=none;align=center;verticalAlign=middle;whiteSpace=wrap;rounded=0;fontSize=22;" parent="keqpm7v_gJoTvBz5cPvA-9" vertex="1">
          <mxGeometry y="51" width="60" height="30" as="geometry" />
        </mxCell>
        <mxCell id="keqpm7v_gJoTvBz5cPvA-7" value="情感" style="text;html=1;strokeColor=none;fillColor=none;align=center;verticalAlign=middle;whiteSpace=wrap;rounded=0;fontSize=22;" parent="keqpm7v_gJoTvBz5cPvA-9" vertex="1">
          <mxGeometry x="51" y="38" width="60" height="30" as="geometry" />
        </mxCell>
        <mxCell id="lbbJXawMjLOiKPOYFRqx-36" value="&lt;h1&gt;层次性&lt;/h1&gt;&lt;p&gt;&lt;span style=&quot;text-align: center;&quot;&gt;需求本质上是稳定的核心观念与变动的外围观念所组成的层次互动体系。外围观念可以直接形成动机，但是这仍然是根植于其所链接的核心观念的。每个观念都有系数，决定了其所能引发的预期的强度。即使生存是最原始的核心观念，但是其系数也有可能被其他核心观念所超越。同理，外围观念也有可能会强于核心观念。&lt;/span&gt;&lt;/p&gt;" style="text;html=1;strokeColor=none;fillColor=none;spacing=5;spacingTop=-20;whiteSpace=wrap;overflow=hidden;rounded=0;fontSize=16;opacity=0;" parent="1" vertex="1">
          <mxGeometry x="92" y="144" width="260.5" height="281" as="geometry" />
        </mxCell>
        <mxCell id="lbbJXawMjLOiKPOYFRqx-37" value="&lt;h1&gt;矛盾性与运动性&lt;/h1&gt;&lt;p&gt;&lt;span style=&quot;text-align: center;&quot;&gt;这个体系是随着环境与核心观念的互动而变化的，观念本身会发生变化，观念的系数也会发生变化。外围观念的变化更多与核心观念有关，核心观念的变化尚且未知。&lt;/span&gt;&lt;br&gt;&lt;/p&gt;" style="text;html=1;strokeColor=none;fillColor=none;spacing=5;spacingTop=-20;whiteSpace=wrap;overflow=hidden;rounded=0;fontSize=16;opacity=0;" parent="1" vertex="1">
          <mxGeometry x="92" y="464" width="250.5" height="180" as="geometry" />
        </mxCell>
      </root>
    </mxGraphModel>
  </diagram>
  <diagram id="bZnWhGwlDkqfE6Z6Ka0u" name="需求-预期模型">
    <mxGraphModel dx="1335" dy="811" grid="1" gridSize="10" guides="1" tooltips="1" connect="1" arrows="1" fold="1" page="1" pageScale="1" pageWidth="827" pageHeight="1169" math="0" shadow="0">
      <root>
        <mxCell id="0" />
        <mxCell id="1" parent="0" />
        <mxCell id="CN2NexuVnx9_SkuIJJvM-2" value="" style="edgeStyle=none;rounded=0;orthogonalLoop=1;jettySize=auto;html=1;entryX=0.625;entryY=0.2;entryDx=0;entryDy=0;entryPerimeter=0;" edge="1" parent="1" source="CN2NexuVnx9_SkuIJJvM-4" target="CN2NexuVnx9_SkuIJJvM-17">
          <mxGeometry relative="1" as="geometry" />
        </mxCell>
        <mxCell id="CN2NexuVnx9_SkuIJJvM-3" style="edgeStyle=none;rounded=0;orthogonalLoop=1;jettySize=auto;html=1;exitX=0.75;exitY=1;exitDx=0;exitDy=0;entryX=0.25;entryY=0.25;entryDx=0;entryDy=0;entryPerimeter=0;startArrow=classic;startFill=1;endArrow=none;endFill=0;" edge="1" parent="1" source="CN2NexuVnx9_SkuIJJvM-4" target="f7RIj0uco2Hz7s-HtjSD-1">
          <mxGeometry relative="1" as="geometry">
            <mxPoint x="1091.52" y="885.4799999999998" as="targetPoint" />
          </mxGeometry>
        </mxCell>
        <mxCell id="CN2NexuVnx9_SkuIJJvM-4" value="&lt;font style=&quot;font-size: 22px&quot;&gt;预期&lt;/font&gt;" style="whiteSpace=wrap;html=1;snapToPoint=0;fixDash=0;shadow=1;" vertex="1" parent="1">
          <mxGeometry x="939" y="785" width="120" height="60" as="geometry" />
        </mxCell>
        <mxCell id="CN2NexuVnx9_SkuIJJvM-5" value="" style="group;opacity=0;fillColor=none;" vertex="1" connectable="0" parent="1">
          <mxGeometry x="414" y="710" width="346" height="210" as="geometry" />
        </mxCell>
        <mxCell id="CN2NexuVnx9_SkuIJJvM-6" value="" style="shape=hexagon;perimeter=hexagonPerimeter2;whiteSpace=wrap;html=1;fixedSize=1;" vertex="1" parent="CN2NexuVnx9_SkuIJJvM-5">
          <mxGeometry width="346" height="210" as="geometry" />
        </mxCell>
        <mxCell id="CN2NexuVnx9_SkuIJJvM-7" value="&lt;font style=&quot;font-size: 22px&quot;&gt;需求&lt;/font&gt;" style="whiteSpace=wrap;html=1;snapToPoint=0;fixDash=0;shadow=1;fillColor=#60a917;fontColor=#ffffff;strokeColor=#2D7600;" vertex="1" parent="CN2NexuVnx9_SkuIJJvM-5">
          <mxGeometry x="26" y="30" width="120" height="60" as="geometry" />
        </mxCell>
        <mxCell id="CN2NexuVnx9_SkuIJJvM-8" value="&lt;font style=&quot;font-size: 22px&quot;&gt;事件&lt;br&gt;&lt;/font&gt;" style="whiteSpace=wrap;html=1;snapToPoint=0;fixDash=0;shadow=1;" vertex="1" parent="CN2NexuVnx9_SkuIJJvM-5">
          <mxGeometry x="113" y="130" width="120" height="60" as="geometry" />
        </mxCell>
        <mxCell id="CN2NexuVnx9_SkuIJJvM-9" value="" style="group" vertex="1" connectable="0" parent="CN2NexuVnx9_SkuIJJvM-5">
          <mxGeometry x="216" y="4.5" width="111" height="111" as="geometry" />
        </mxCell>
        <mxCell id="CN2NexuVnx9_SkuIJJvM-10" value="" style="ellipse;whiteSpace=wrap;html=1;aspect=fixed;fontSize=22;" vertex="1" parent="CN2NexuVnx9_SkuIJJvM-9">
          <mxGeometry width="111" height="111" as="geometry" />
        </mxCell>
        <mxCell id="CN2NexuVnx9_SkuIJJvM-11" value="" style="group" vertex="1" connectable="0" parent="CN2NexuVnx9_SkuIJJvM-9">
          <mxGeometry y="31" width="111" height="50" as="geometry" />
        </mxCell>
        <mxCell id="CN2NexuVnx9_SkuIJJvM-12" value="认知" style="text;html=1;strokeColor=none;fillColor=none;align=center;verticalAlign=middle;whiteSpace=wrap;rounded=0;fontSize=22;" vertex="1" parent="CN2NexuVnx9_SkuIJJvM-11">
          <mxGeometry y="20" width="60" height="30" as="geometry" />
        </mxCell>
        <mxCell id="CN2NexuVnx9_SkuIJJvM-13" value="情绪" style="text;html=1;strokeColor=none;fillColor=none;align=center;verticalAlign=middle;whiteSpace=wrap;rounded=0;fontSize=22;" vertex="1" parent="CN2NexuVnx9_SkuIJJvM-11">
          <mxGeometry x="51" y="7" width="60" height="30" as="geometry" />
        </mxCell>
        <mxCell id="CN2NexuVnx9_SkuIJJvM-14" value="" style="curved=1;endArrow=none;html=1;rounded=0;fontSize=22;entryX=0.5;entryY=0;entryDx=0;entryDy=0;exitX=0.5;exitY=1;exitDx=0;exitDy=0;endFill=0;" edge="1" parent="CN2NexuVnx9_SkuIJJvM-9" source="CN2NexuVnx9_SkuIJJvM-10" target="CN2NexuVnx9_SkuIJJvM-10">
          <mxGeometry width="50" height="50" relative="1" as="geometry">
            <mxPoint x="-588" y="-379.5" as="sourcePoint" />
            <mxPoint x="-538" y="-429.5" as="targetPoint" />
            <Array as="points">
              <mxPoint x="76" y="81" />
              <mxPoint x="36" y="31" />
            </Array>
          </mxGeometry>
        </mxCell>
        <mxCell id="CN2NexuVnx9_SkuIJJvM-15" style="edgeStyle=orthogonalEdgeStyle;rounded=0;orthogonalLoop=1;jettySize=auto;html=1;exitX=1;exitY=0.5;exitDx=0;exitDy=0;entryX=0;entryY=0.5;entryDx=0;entryDy=0;" edge="1" parent="1" source="CN2NexuVnx9_SkuIJJvM-6" target="CN2NexuVnx9_SkuIJJvM-4">
          <mxGeometry relative="1" as="geometry" />
        </mxCell>
        <mxCell id="CN2NexuVnx9_SkuIJJvM-16" value="&lt;font style=&quot;font-size: 22px;&quot;&gt;增幅或者削弱&lt;/font&gt;" style="edgeStyle=none;rounded=0;orthogonalLoop=1;jettySize=auto;html=1;exitX=0.875;exitY=0.5;exitDx=0;exitDy=0;exitPerimeter=0;entryX=0.16;entryY=0.55;entryDx=0;entryDy=0;entryPerimeter=0;" edge="1" parent="1" source="CN2NexuVnx9_SkuIJJvM-17" target="f7RIj0uco2Hz7s-HtjSD-1">
          <mxGeometry relative="1" as="geometry">
            <mxPoint x="1061.4" y="914.9999999999998" as="targetPoint" />
          </mxGeometry>
        </mxCell>
        <mxCell id="CN2NexuVnx9_SkuIJJvM-17" value="&lt;font style=&quot;font-size: 22px;&quot;&gt;收益与成本&lt;br&gt;&lt;/font&gt;" style="ellipse;shape=cloud;whiteSpace=wrap;html=1;shadow=1;" vertex="1" parent="1">
          <mxGeometry x="770" y="883" width="180" height="107" as="geometry" />
        </mxCell>
        <mxCell id="f7RIj0uco2Hz7s-HtjSD-1" value="&lt;font style=&quot;font-size: 22px;&quot;&gt;难度（自我效能感）&lt;/font&gt;" style="ellipse;shape=cloud;whiteSpace=wrap;html=1;shadow=1;" vertex="1" parent="1">
          <mxGeometry x="1054" y="873" width="296" height="107" as="geometry" />
        </mxCell>
        <mxCell id="f7RIj0uco2Hz7s-HtjSD-4" value="" style="rounded=0;orthogonalLoop=1;jettySize=auto;html=1;fontSize=22;endArrow=none;endFill=0;startArrow=classic;startFill=1;entryX=0;entryY=1;entryDx=0;entryDy=0;exitX=1;exitY=0;exitDx=0;exitDy=0;" edge="1" parent="1" source="f7RIj0uco2Hz7s-HtjSD-2" target="f7RIj0uco2Hz7s-HtjSD-3">
          <mxGeometry relative="1" as="geometry" />
        </mxCell>
        <mxCell id="f7RIj0uco2Hz7s-HtjSD-2" value="&lt;font style=&quot;font-size: 22px;&quot;&gt;需求&lt;/font&gt;" style="ellipse;whiteSpace=wrap;html=1;" vertex="1" parent="1">
          <mxGeometry x="610" y="450" width="120" height="80" as="geometry" />
        </mxCell>
        <mxCell id="f7RIj0uco2Hz7s-HtjSD-3" value="&lt;font style=&quot;font-size: 22px;&quot;&gt;社会比较&lt;/font&gt;" style="rhombus;whiteSpace=wrap;html=1;" vertex="1" parent="1">
          <mxGeometry x="830" y="340" width="170" height="120" as="geometry" />
        </mxCell>
        <mxCell id="f7RIj0uco2Hz7s-HtjSD-6" style="edgeStyle=none;rounded=0;orthogonalLoop=1;jettySize=auto;html=1;exitX=0;exitY=0;exitDx=0;exitDy=0;entryX=1;entryY=1;entryDx=0;entryDy=0;fontSize=22;startArrow=none;startFill=0;endArrow=classic;endFill=1;" edge="1" parent="1" source="f7RIj0uco2Hz7s-HtjSD-5" target="f7RIj0uco2Hz7s-HtjSD-2">
          <mxGeometry relative="1" as="geometry" />
        </mxCell>
        <mxCell id="f7RIj0uco2Hz7s-HtjSD-5" value="取悦自我" style="rhombus;whiteSpace=wrap;html=1;fontSize=22;" vertex="1" parent="1">
          <mxGeometry x="833.75" y="530" width="162.5" height="120" as="geometry" />
        </mxCell>
      </root>
    </mxGraphModel>
  </diagram>
</mxfile>
